<?xml version="1.0" standalone="no"?>
<!DOCTYPE svg PUBLIC "-//W3C//DTD SVG 20010904//EN"
 "http://www.w3.org/TR/2001/REC-SVG-20010904/DTD/svg10.dtd">
<svg version="1.0" xmlns="http://www.w3.org/2000/svg"
 width="200.000000pt" height="200.000000pt" viewBox="0 0 200.000000 200.000000"
 preserveAspectRatio="xMidYMid meet">
<metadata>
Created by potrace 1.11, written by Peter Selinger 2001-2013
</metadata>
<g transform="translate(0.000000,200.000000) scale(0.100000,-0.100000)"
fill="#000000" stroke="none">
<path d="M1010 1474 c-35 -8 -67 -10 -70 -5 -3 4 -38 7 -78 6 -84 -3 -102 -14
-105 -67 -2 -25 -14 -48 -44 -82 -77 -87 -107 -181 -98 -304 5 -62 11 -107 15
-107 1 0 3 -9 5 -20 4 -33 13 -66 35 -140 11 -38 23 -79 25 -90 3 -11 8 -33
13 -48 6 -24 2 -34 -30 -69 -21 -23 -38 -47 -38 -53 0 -7 -14 -15 -31 -19 -40
-8 -86 -41 -102 -74 -29 -60 -13 -147 31 -171 15 -8 17 -21 15 -78 -1 -37 -9
-87 -17 -110 l-15 -43 438 0 439 0 -2 30 c-1 17 1 36 6 43 5 8 8 6 8 -8 0 -11
7 -31 16 -43 13 -19 24 -22 90 -22 41 0 74 2 74 4 0 2 -11 23 -25 48 -50 90
-76 192 -51 201 19 7 44 55 49 93 11 83 -75 185 -160 187 -32 1 -43 12 -48 52
-11 75 -19 114 -46 220 -36 142 -49 298 -29 346 16 37 60 59 122 59 61 0 71
10 65 57 -24 167 -106 226 -306 222 -47 -1 -115 -8 -151 -15z"/>
</g>
</svg>
